<svg xmlns="http://www.w3.org/2000/svg" xmlns:xlink="http://www.w3.org/1999/xlink" viewBox="0 0 1920 400"><defs><style>.cls-1,.cls-10,.cls-11,.cls-12,.cls-9{fill:none;}.cls-2,.cls-34{fill:#fff;}.cls-10,.cls-11,.cls-12,.cls-13,.cls-14,.cls-15,.cls-16,.cls-17,.cls-19,.cls-2,.cls-20,.cls-21,.cls-22,.cls-23,.cls-24,.cls-25,.cls-26,.cls-27,.cls-28,.cls-29,.cls-3,.cls-4,.cls-44,.cls-5,.cls-6,.cls-7,.cls-8,.cls-9{fill-rule:evenodd;}.cls-3{fill:#e47f66;}.cls-4{fill:#662c19;}.cls-5{fill:#ecbd8e;}.cls-6{fill:#4f2215;}.cls-7{fill:#f5dcc5;}.cls-8{fill:#1c7cba;}.cls-9{stroke:#81cded;stroke-width:3px;}.cls-10,.cls-11,.cls-12,.cls-9{stroke-linecap:round;stroke-linejoin:round;}.cls-10{stroke:#979797;}.cls-11{stroke:#662c19;}.cls-12{stroke:#676666;stroke-width:2px;}.cls-13,.cls-27,.cls-29{fill:#bfe4f5;}.cls-14{fill:#676666;}.cls-15,.cls-18{fill:#2aa5d9;}.cls-16{fill:#3eb6e4;}.cls-17{fill:#8ccdec;}.cls-18{font-size:5.12px;font-family:_sans;}.cls-19,.cls-48{fill:#e20a53;}.cls-20{fill:#8d1133;}.cls-21{fill:#925e2e;}.cls-22{fill:#7e4f27;}.cls-23{fill:#925e2d;}.cls-24{fill:#4f2214;}.cls-25{fill:#dbaf84;}.cls-26{fill:#07529b;}.cls-27{fill-opacity:0.54;}.cls-28{fill:#045099;}.cls-29{fill-opacity:0.98;}.cls-30{fill:url(#linear-gradient);}.cls-31{fill:#def4f9;}.cls-32{fill:#fdbc2c;}.cls-33{fill:#3e484f;}.cls-35{fill:#005199;}.cls-36{font-size:7.59px;font-family:BentonSansBBVA-Medium, Benton Sans BBVA;font-weight:500;}.cls-36,.cls-41{fill:#2f99d0;}.cls-37{letter-spacing:-0.01em;}.cls-38{fill:#b5e0f4;}.cls-39{fill:#8bceee;}.cls-40{fill:#58b9e4;}.cls-42{fill:#1f6cae;}.cls-43{fill:#185099;}.cls-44{fill:#00a6dc;}.cls-45{clip-path:url(#clip-path);}.cls-46{fill:#8d1134;}.cls-47{fill:#c50045;}.cls-49{clip-path:url(#clip-path-2);}</style><linearGradient id="linear-gradient" x1="960" x2="960" y2="260" gradientUnits="userSpaceOnUse"><stop offset="0" stop-color="#d1edfa"/><stop offset="0.23" stop-color="#cdebfa"/><stop offset="0.47" stop-color="#c0e7f8"/><stop offset="0.71" stop-color="#acdef6"/><stop offset="0.96" stop-color="#8fd3f4"/><stop offset="1" stop-color="#89d1f3"/></linearGradient><clipPath id="clip-path"><rect class="cls-1" x="648" y="33" width="202" height="335"/></clipPath><clipPath id="clip-path-2"><rect class="cls-1" x="1092" y="91" width="180" height="277"/></clipPath><symbol id="fondo_eficio_2" data-name="fondo eficio 2" viewBox="0 0 367.7 201.85"><g id="Capa_1-3" data-name="Capa 1"><path class="cls-17" d="M357.1,108.15c.37-.73.73-1.45,1.1-2.15l-1.2,2.1-.7,1.15a111.79,111.79,0,0,0-7.25,12A105.39,105.39,0,0,0,344,131.75a.58.58,0,0,0-.15.25q-1.35,3.3-2.65,6.65a5.13,5.13,0,0,1-.65,0q-2.6,0-2.9-4.65c-.17-3.13-1-4.7-2.45-4.7q-1.8,0-7.15,2.35a91.47,91.47,0,0,0-11.45,6,64.93,64.93,0,0,0-11.8,8.7q-8.74,3.41-10.65,15.75a107.72,107.72,0,0,0,0,33.05l-16,1.5q.41-6.35.7-12.7.75-14.89,2.4-32.5T296.8,124a87.57,87.57,0,0,1,8.3-5.4,83.68,83.68,0,0,1,20.4-8.45l.05.15L324.6,120c.7-.4,1.4-.78,2.1-1.15Q340.35,111.4,340.1,96v-.1l27.6-1.7c-.3.4-.6.78-.9,1.15l-1.45,1.85c-.87,1.07-1.72,2.15-2.55,3.25l-2.7,3.5Q358.55,106,357.1,108.15ZM281.05,36.4l7.35.5,0,.25a54.54,54.54,0,0,1-10.25,22.6,74.64,74.64,0,0,1-15,14.7,90.18,90.18,0,0,1-19.5,11.1q-11.4,4.7-22.5,10a12.24,12.24,0,0,0-6.3,6.5,103,103,0,0,0-6.9,23.35,14.56,14.56,0,0,1-3.85,7.65,84.55,84.55,0,0,1-9.85,9.05l-.7.55q-2.59,2-4.95,8.85L184,149.1q-11.1-6-14.55-7.95l-1.4-.8c-.2-.13-.23-.17-.1-.1H168l.55.2-.85-.6,0,0,7.25-7.65a53.76,53.76,0,0,0,6-8.65A34.33,34.33,0,0,1,184,119a28,28,0,0,1,13.5-8.85,6,6,0,0,0,3.4-2.7,27.47,27.47,0,0,0,3-19.9q-1.45-7.16,4.8-10a46.57,46.57,0,0,1,16.6-4,36.56,36.56,0,0,0,19.05-7.1,120.39,120.39,0,0,0,18-16.15q-14.8-15.3-37.6-5.65-17.45,7.39-34.55,15.9-3.1,1.55-6.25,3a207.66,207.66,0,0,1-31.45,11.4q-17.55,4.9-26.2,20-2.75,4.8-5.55,9.6l-1.3,2.2q-2.9,4.91-5.9,9.8l-1.7-.85,5.75-12.15,9.1-18.75,4.4-5.25h0a0,0,0,0,1,.05,0A55.23,55.23,0,0,1,144.6,68q5.15-3.4,10.55-6.4A198.6,198.6,0,0,1,184,48.35q3.7-1.35,7.45-2.55l12.8-3.55L214.6,40q8.66-1.55,17.3-2.5a283.15,283.15,0,0,1,38-1.55h.95c.63,0,1.28,0,1.95,0Zm-175.2,67.25a85.54,85.54,0,0,0-11.4,2.8,135.1,135.1,0,0,0-21,9.1q-6.2,3.3-12.65,6.15v-23c0-.53,0-1.07,0-1.6h0V89.5a2.83,2.83,0,0,1,.5,0A198.41,198.41,0,0,0,87,86c2.17-.4,4.38-.85,6.65-1.35q3-.64,5.8-1.2l1-.2-.15-.7a47.87,47.87,0,0,0,2.4-8.9,125.9,125.9,0,0,0,1.95-23.45,98.66,98.66,0,0,0-1.2-17.35c-.13-.77-.35-1.73-.65-2.9l-1.9-5.7.35-.1a40,40,0,0,1,12.5-2.3,13.11,13.11,0,0,1,2.85.3v7.1q-.45,4-.65,9.55-.7,22.8-.75,23.5V81.1l-.85.1c-1.17.13-2.25.28-3.25.45l-5.25.7,0,3.7.2-.15-.4,7.25.35,10.45A0,0,0,0,0,105.85,103.65ZM38.3,201.35c-3.83.33-7,.5-9.55.5A74.56,74.56,0,0,1,17.1,201c1.33-1.2,3.52-2.15,6.55-2.85a57.14,57.14,0,0,1,13-1.25h2Zm87.85-82.8h.1l13.95-.9v.45q-.1,1.4-.3,2.85a27.08,27.08,0,0,1-1.85,5.85,37.8,37.8,0,0,1-5.6,8.55q-3.75,4.35-17.2,16.05-12,10.4-17.25,17.85a40.57,40.57,0,0,0-7.85,23.65c0,.3,0,.72,0,1.25q-4.65.65-10.6,1.55a63.87,63.87,0,0,1-1-6.6q0-13.75,6.65-23.95,4.6-7.05,15-15.2,13.1-10.3,16.15-13.45A36.07,36.07,0,0,0,126.15,118.55Z"/><path class="cls-26" d="M357.1,108.15l-.1-.05,1.2-2.1C357.83,106.7,357.47,107.42,357.1,108.15Zm-108.7.4L276.7,74c-.13,2-.27,5-.4,9.15-.1,1.63-.18,3.45-.25,5.45q-.45,11.2-.5,15.25-3.15.45-6.3,1Q258.5,106.65,248.4,108.55ZM168.8,187.3q-24.35-.41-30.45-.7c-.33-3.83-.5-7.67-.5-11.5q0-16,1.75-34.6c.17-1.57.32-3.05.45-4.45q.34-3.26.65-5.8c.1-.77.2-1.48.3-2.15l.65.3,26,11.4,0,0,.3.4H168c-.13-.07-.1,0,.1.1q5.85,7.85,5.85,12.9a110.68,110.68,0,0,1-4.1,30.95C169.57,185,169.23,186.07,168.8,187.3Zm62.55-.6q-4.6.2-10.9.35-.25-7.2-.8-19.4-.26-4.91-.4-8.7-.5-10.65-.55-12.95v-.15l.2-.2q5.21-7.05,11.5-14.75.4,4.31.65,12.5.25,9.94.3,25.65Q231.4,177.41,231.35,186.7Z"/><path class="cls-8" d="M357.1,108.15q-10.65,20.4-8.8,39.65a126.61,126.61,0,0,0,11.1,42q-4.75,2.21-15.2,2.9a22.78,22.78,0,0,1-2.4-6.75,96.26,96.26,0,0,1-1.1-40.2q1.35-7.1,3.3-14.05a105.39,105.39,0,0,1,5.05-10.55,111.79,111.79,0,0,1,7.25-12l.7-1.15ZM283.85.2h-.35a.6.6,0,0,1,.35-.1S283.82.13,283.85.2Zm-41.55,186h-.1q-4.39.3-10.7.55h-.15q0-9.3,0-17.65,0-15.7-.3-25.65-.26-8.21-.65-12.5-6.3,7.69-11.5,14.75l-.2.2c-.47.63-.92,1.25-1.35,1.85A116.59,116.59,0,0,0,208,162.45l-19.45-10.9q2.35-6.9,4.95-8.85l.7-.55a84.55,84.55,0,0,0,9.85-9.05,14.56,14.56,0,0,0,3.85-7.65,103,103,0,0,1,6.9-23.35,12.24,12.24,0,0,1,6.3-6.5q11.1-5.35,22.5-10a90.18,90.18,0,0,0,19.5-11.1,74.64,74.64,0,0,0,15-14.7,54.54,54.54,0,0,0,10.25-22.6l0-.25q13.35,1,17.55,1.75v.05L300.7,45l-24,29-28.3,34.55-.35.1-1.65.3-3.75.7c-1.93.37-4.7.93-8.3,1.7-1.8.37-3.43.72-4.9,1.05a72.68,72.68,0,0,1,4.6,11.85c.17.53.33,1.1.5,1.7a.92.92,0,0,0,0,.25c.23.73.45,1.52.65,2.35q1.2,4.35,2.3,9.5a220.78,220.78,0,0,1,5.15,40.15l.05,8ZM252.65,12.7a154,154,0,0,1,24.1-10.45l.05.3a3.64,3.64,0,0,0,.05.5,29,29,0,0,0,.8,4.15,24.82,24.82,0,0,1,.85,5.8q0,3.2-5.35,7.15t-5.35,7.4q0,.94,2.05,6c.37.9.68,1.7.95,2.4h-.95a283.15,283.15,0,0,0-38,1.55q-8.66.95-17.3,2.5a74.53,74.53,0,0,1,5.9-5.6q2.4-2.1,5.05-4.15a160.33,160.33,0,0,1,14.7-10.35c1.83-1.17,3.67-2.28,5.5-3.35Q249.2,14.5,252.65,12.7ZM144.6,68a15.19,15.19,0,0,1-.5-3.1,53.22,53.22,0,0,1,4-19.35,54.69,54.69,0,0,1,2.6-5.8q13.76-5.6,16.3-6.55,9.1-3.49,17-5.8c.53-.17,1.05-.32,1.55-.45q2.8,2.59,4.45,8.1a30,30,0,0,1,1.45,10.8Q187.7,47,184,48.35a198.6,198.6,0,0,0-28.85,13.2Q149.75,64.55,144.6,68Zm-28-38.75a9.38,9.38,0,0,1,3.15,1.5,14.93,14.93,0,0,1,4,4.85A24.18,24.18,0,0,0,127,40.4q2.1,2,9.7,2.85h.1q-4.45,5.2-5.05,20.3-.45,10.76-.6,15.9l-4.4,5.25q-1.8-5-7.85-4.15c-.63.07-1.28.15-2,.25l-1.8.3V62.25q0-.7.75-23.5Q116.1,33.2,116.55,29.2ZM33.65,139.65q.26-9.71.3-17.75v-1.5c0-.5,0-1,0-1.5a5.21,5.21,0,0,1,1.15,1.1,4.84,4.84,0,0,0,1.55,1c.77.47,1.55.9,2.35,1.3a.58.58,0,0,1,.25.15.21.21,0,0,1,.15,0,20.87,20.87,0,0,0,12.8,2.35h0a22.91,22.91,0,0,0,8.45-3.2q6.45-2.85,12.65-6.15a135.1,135.1,0,0,1,21-9.1,85.54,85.54,0,0,1,11.4-2.8v.25a2.16,2.16,0,0,1,.25-.1,23.4,23.4,0,0,1,5.9-.65,40.54,40.54,0,0,1,5.65.3L111.9,115.6l-.2.45a15.87,15.87,0,0,1-2.5-1.4,16.17,16.17,0,0,1-1.3-1l-1.75-2.05h-.1A51.3,51.3,0,0,0,90,115.1c-1.23.5-2.45,1-3.65,1.6l-.15-1.1a64,64,0,0,0-13.55,3.85q-6.1,2.55-19.35,10.3A146.82,146.82,0,0,1,33.65,139.65Zm186.8,47.4q-14.05.3-36.45.35h-7.9l-7.3-.1c.43-1.23.77-2.27,1-3.1a110.68,110.68,0,0,0,4.1-30.95q0-5.06-5.85-12.9l1.4.8L210.3,170.8,219.25,159q.15,3.8.4,8.7Q220.21,179.85,220.45,187.05ZM17.1,201l-1.25-.2a17.22,17.22,0,0,1,.6-2.65,9.14,9.14,0,0,1,.55-1.7q2.45-6.5,9.4-12.7a47.46,47.46,0,0,1,9-6.3,27.46,27.46,0,0,1,4.65-2.05l-1.45,21.5h-2a57.14,57.14,0,0,0-13,1.25C20.62,198.8,18.43,199.75,17.1,201ZM141.65,128.4l-.65-.3c-.1.67-.2,1.38-.3,2.15q-.3,2.55-.65,5.8c-.13,1.4-.28,2.88-.45,4.45q-1.75,18.56-1.75,34.6c0,3.83.17,7.67.5,11.5.1,1.4.23,2.8.4,4.2q-6.15,0-11.55.2-14,.34-23.1,1.25-3.45.34-13.9,1.9c0-.53,0-1,0-1.25A40.57,40.57,0,0,1,98,169.25q5.2-7.45,17.25-17.85,13.45-11.7,17.2-16.05a37.8,37.8,0,0,0,5.6-8.55A27.08,27.08,0,0,0,139.9,121q.19-1.45.3-2.85h3.55ZM33.2,152.5v-.1l.45-.05Z"/><path class="cls-13" d="M305.1,118.55l-5.85-.8-5-.65A139.44,139.44,0,0,0,278,115.85a126.47,126.47,0,0,0-29.3,3.25,61.35,61.35,0,0,0-14.65,5.15,72.68,72.68,0,0,0-4.6-11.85c1.47-.33,3.1-.68,4.9-1.05,3.6-.77,6.37-1.33,8.3-1.7l3.75-.7,1.65-.3.35-.1q10.09-1.9,20.85-3.7,3.15-.55,6.3-1c2.67-.43,5.33-.85,8-1.25q12.15-1.84,23.95-3.3h.05l-.1-.4c-.37-1.13-1-3-1.85-5.45a34.56,34.56,0,0,1-2.2-11.55q0-3.95,3.4-14.1t3.35-15a22.91,22.91,0,0,0-.6-5c-.23-.9-.5-1.82-.8-2.75a42.59,42.59,0,0,0-2.65-6q-.11-.2-.15-.3v-.05a82.56,82.56,0,0,0-8.35-12.2A112.59,112.59,0,0,0,287.9,16a46.33,46.33,0,0,0-4.75-4q.41-6.71.7-11.7c0-.07,0-.1,0-.1a2.16,2.16,0,0,1,.25-.1,84.94,84.94,0,0,1,18.35,17,98,98,0,0,1,15.1,24.7,72.27,72.27,0,0,1,6.1,28.25,101.28,101.28,0,0,1-1.45,16.8q-1.45,8.55-1.3,11,8.4-.9,16.55-1.6a6.15,6.15,0,0,1,1.15-.1q.75-.1,1.5-.15V96q.25,15.41-13.4,22.85c-.7.37-1.4.75-2.1,1.15l.95-9.75-.05-.15A83.68,83.68,0,0,0,305.1,118.55Zm-191.5-2.1a4.39,4.39,0,0,0-.3.45l-1.7-.65.1-.2.2-.45ZM204.25,23.1a112.16,112.16,0,0,0-18.7,3.8c-.5.13-1,.28-1.55.45q-7.91,2.29-17,5.8-2.55.95-16.3,6.55c-.47.17-.93.35-1.4.55q-2.7,1.09-4.7,1.85v-.35q0-3,8.15-11.9A76.36,76.36,0,0,1,163.2,20.2c1.43-.83,2.92-1.62,4.45-2.35A136,136,0,0,1,184,9.9a81.48,81.48,0,0,1,11.5-3.75A98.32,98.32,0,0,1,218.45,3.5,74.51,74.51,0,0,1,242.3,7q7.5,2.55,10.35,5.75-3.45,1.8-6.9,3.85c-1.83,1.07-3.67,2.18-5.5,3.35a160.33,160.33,0,0,0-14.7,10.35L208.1,22.8C206.87,22.87,205.58,23,204.25,23.1ZM234.6,126.2a.92.92,0,0,1,0-.25l0,0Zm-118-97V22.1a8.44,8.44,0,0,1,1.25.3,10.25,10.25,0,0,1,4.35,2.8,30.8,30.8,0,0,1,4.35,7.45,27,27,0,0,0,4.4,7.45q.75.75,5.8,3.15-7.6-.86-9.7-2.85a24.18,24.18,0,0,1-3.3-4.85,14.93,14.93,0,0,0-4-4.85A9.38,9.38,0,0,0,116.55,29.2ZM1.85,161.45l-.75-7.4a.16.16,0,0,1,.1,0L0,144.4a49.3,49.3,0,0,0,5.35.25A79.64,79.64,0,0,0,32.65,140h1a.69.69,0,0,1,0-.35,146.82,146.82,0,0,0,19.6-9.9Q66.5,122,72.6,119.45a64,64,0,0,1,13.55-3.85l.15,1.1c1.2-.57,2.42-1.1,3.65-1.6a51.3,51.3,0,0,1,16.1-3.5h.1l1.75,2.05,1.3,1.6-1.4,1.4a38.69,38.69,0,0,1-9.15,6.4,171.78,171.78,0,0,1-25,10.55A34.7,34.7,0,0,0,53.25,150q-7.3,12.95-22.6,11.65a151.28,151.28,0,0,0-28.55-.2A.92.92,0,0,0,1.85,161.45ZM33.2,152.5l.45-.15-.45.05Z"/><path class="cls-27" d="M276.75,2.25q3.35-1.15,6.75-2h.35q-.3,5-.7,11.7c-.1,1.37-.2,2.8-.3,4.3q-.86,12.5-1.8,20.2l-8.3-.4c-.67,0-1.32,0-1.95,0-.27-.7-.58-1.5-.95-2.4q-2.06-5.05-2.05-6,0-3.4,5.35-7.4T278.5,13a24.82,24.82,0,0,0-.85-5.8,29,29,0,0,1-.8-4.15,3.64,3.64,0,0,1-.05-.5ZM60.75,121.7a22.91,22.91,0,0,1-8.45,3.2,17.72,17.72,0,0,0-.9-5.6,16.83,16.83,0,0,1-.9-5.45,7.81,7.81,0,0,1,1.1-4.45A12.1,12.1,0,0,1,54,107.2q3.45-2.65,3.45-8.75a51.31,51.31,0,0,1,0-8.8.07.07,0,0,1,.1,0,.69.69,0,0,1,.35,0c.93-.07,1.9-.12,2.9-.15v32.2Z"/><path class="cls-15" d="M294.15,195.15a107.72,107.72,0,0,1,0-33.05q1.91-12.34,10.65-15.75a64.93,64.93,0,0,1,11.8-8.7,91.47,91.47,0,0,1,11.45-6q5.35-2.35,7.15-2.35c1.47,0,2.28,1.57,2.45,4.7s1.17,4.65,2.9,4.65a5.13,5.13,0,0,0,.65,0q1.31-3.35,2.65-6.65a.58.58,0,0,1,.15-.25q-2,6.94-3.3,14.05a96.26,96.26,0,0,0,1.1,40.2,22.78,22.78,0,0,0,2.4,6.75,70.29,70.29,0,0,1-17.15,0,4.39,4.39,0,0,1-1.05-.15,20.11,20.11,0,0,0-5.4,0q-4.2.25-14.3,1.35T294.15,195.15Zm13.3-96.25.05.4q-11.81,1.45-23.95,3.3c-2.67.4-5.33.82-8,1.25q0-4,.5-15.25c.07-2,.15-3.82.25-5.45L307.05,47l-6.35-2L306,38.7q0,.11.15.3a42.59,42.59,0,0,1,2.65,6c.3.93.57,1.85.8,2.75a22.91,22.91,0,0,1,.6,5q0,4.91-3.35,15t-3.4,14.1a34.56,34.56,0,0,0,2.2,11.55C306.47,96,307.08,97.77,307.45,98.9ZM306,38.65q-4.2-.75-17.55-1.75l-7.35-.5q.94-7.69,1.8-20.2c.1-1.5.2-2.93.3-4.3a46.33,46.33,0,0,1,4.75,4,112.59,112.59,0,0,1,9.7,10.5A82.56,82.56,0,0,1,306,38.65Zm-71.9,85.6a61.35,61.35,0,0,1,14.65-5.15,126.47,126.47,0,0,1,29.3-3.25,139.44,139.44,0,0,1,16.25,1.25,26,26,0,0,1-5.4,8.1q-1.65,1.85-10.7,10.55A81.91,81.91,0,0,0,267.8,147.2q-4.65,6.56-4.65,12.25a10.06,10.06,0,0,0,1.55,5.65q.49.71,3.45,3.75,5,5.15,5,14.4,0,3.9-.55,10.2c-.13,1.47-.25,2.72-.35,3.75l-9.5.85h-.05a18.61,18.61,0,0,1-6.9,0c-.93-.17-1.85-.35-2.75-.55a72.3,72.3,0,0,1-11.1-3.35l.4-8h.45l-.05-8a220.78,220.78,0,0,0-5.15-40.15q-1.1-5.15-2.3-9.5c-.2-.83-.42-1.62-.65-2.35v-.3l0,0C234.38,125.35,234.22,124.78,234.05,124.25ZM185.55,26.9a112.16,112.16,0,0,1,18.7-3.8V42.25l-12.8,3.55A30,30,0,0,0,190,35Q188.35,29.49,185.55,26.9Zm-54.3,52.5c.13-.47.1-.45-.1,0q.15-5.15.6-15.9.6-15.11,5.05-20.3a15.66,15.66,0,0,0,2.9.25,19.9,19.9,0,0,0,4.9-1.4q2-.75,4.7-1.85c.47-.2.93-.38,1.4-.55a54.69,54.69,0,0,0-2.6,5.8,53.22,53.22,0,0,0-4,19.35,15.19,15.19,0,0,0,.5,3.1A55.23,55.23,0,0,0,131.25,79.4Zm-13.6,24a40.54,40.54,0,0,0-5.65-.3,23.4,23.4,0,0,0-5.9.65,2.16,2.16,0,0,0-.25.1v-.25a0,0,0,0,1,.05-.05l-.35-10.45.4-7.25-.2.15,0-3.7,5.25-.7c1-.17,2.08-.32,3.25-.45l.85-.1,1.8-.3c.67-.1,1.32-.18,2-.25q6-.8,7.85,4.15Zm-6,12.6-.1.2,1.7.65a4.39,4.39,0,0,1,.3-.45q3-4.9,5.9-9.8l1.3-2.2q2.81-4.8,5.55-9.6,8.66-15.15,26.2-20A207.66,207.66,0,0,0,184,63.4q3.15-1.45,6.25-3,17.1-8.51,34.55-15.9,22.8-9.64,37.6,5.65a120.39,120.39,0,0,1-18,16.15,36.56,36.56,0,0,1-19.05,7.1,46.57,46.57,0,0,0-16.6,4q-6.25,2.89-4.8,10a27.47,27.47,0,0,1-3,19.9,6,6,0,0,1-3.4,2.7A28,28,0,0,0,184,119a34.33,34.33,0,0,0-3.1,4.55,53.76,53.76,0,0,1-6,8.65l-7.25,7.65-26-11.4,2.1-10.3H140.2v-.45l-13.95.9v0a.16.16,0,0,0-.1,0,36.07,36.07,0,0,1-9.75,18q-3,3.15-16.15,13.45-10.4,8.15-15,15.2-6.65,10.2-6.65,23.95a63.87,63.87,0,0,0,1,6.6l-13.8,2.1q-17,2.59-27.5,3.55l.3-4.5,1.45-21.5.1-1.2H40c0-.1.08-.23.15-.4l.15-2.15-19.55,1.75a14.22,14.22,0,0,0-3.45.75c-.23-.07-.4.62-.5,2.05s-.22,2.5-.35,3.3l-1.55,21.1q-3.2-.6-6.35-1.5-4.5-1.55-7.4-2.45c.1-.73.22-1.53.35-2.4q.35-2.74.6-6.15.4-6.41.4-15.05c0-3.13-.15-6.32-.45-9.55-.07-.67-.13-1.33-.2-2a.92.92,0,0,1,.25,0,151.28,151.28,0,0,1,28.55.2Q46,162.91,53.25,150a34.7,34.7,0,0,1,20.4-16.35,171.78,171.78,0,0,0,25-10.55,38.69,38.69,0,0,0,9.15-6.4l1.4-1.4-1.3-1.6a16.17,16.17,0,0,0,1.3,1A15.87,15.87,0,0,0,111.7,116.05ZM100.85,24.2l1.9,5.7c.3,1.17.52,2.13.65,2.9a98.66,98.66,0,0,1,1.2,17.35,125.9,125.9,0,0,1-1.95,23.45,47.87,47.87,0,0,1-2.4,8.9l.15.7-1,.2q-2.81.55-5.8,1.2c-2.27.5-4.48,1-6.65,1.35l-.25-1.1c-.17-.83-.37-3.37-.6-7.6-.2-3.77-.3-6.13-.3-7.1A103.48,103.48,0,0,1,87.35,53q.65-3.8,1.5-7.5a102.32,102.32,0,0,1,6.5-19.1c1-.43,2-.85,3-1.25C99.18,24.77,100,24.47,100.85,24.2ZM34,118.9a.36.36,0,0,1,0-.25q.11-16.4.35-30.9a22.91,22.91,0,0,0,8.15,1.8q1.45.11,12.25.1H57.4a51.31,51.31,0,0,0,0,8.8q0,6.1-3.45,8.75a12.1,12.1,0,0,0-2.35,2.2,7.81,7.81,0,0,0-1.1,4.45,16.83,16.83,0,0,0,.9,5.45,17.72,17.72,0,0,1,.9,5.6h0a20.87,20.87,0,0,1-12.8-2.35.21.21,0,0,0-.15,0,.58.58,0,0,0-.25-.15c-.8-.4-1.58-.83-2.35-1.3a4.84,4.84,0,0,1-1.55-1A5.21,5.21,0,0,0,34,118.9ZM60.75,98.65v-1.6h0C60.8,97.58,60.78,98.12,60.75,98.65Zm79.45,19h1a4.19,4.19,0,0,0-1-.1Z"/><path class="cls-26" d="M276.7,74l24-29,6.35,2L276.3,83.15C276.43,79,276.57,76,276.7,74ZM15.85,200.75l-.6-.1-.35-.1,1.55-21.1c.13-.8.25-1.9.35-3.3s.27-2.12.5-2.05a14.22,14.22,0,0,1,3.45-.75L40.3,171.6l-.15,2.15c-.07.17-.12.3-.15.4h.15l-.1,1.2a27.46,27.46,0,0,0-4.65,2.05,47.46,47.46,0,0,0-9,6.3q-6.94,6.2-9.4,12.7a9.14,9.14,0,0,0-.55,1.7A17.22,17.22,0,0,0,15.85,200.75Z"/><path class="cls-28" d="M204.25,42.25V23.1c1.33-.13,2.62-.23,3.85-.3l17.45,7.45q-2.66,2.05-5.05,4.15a74.53,74.53,0,0,0-5.9,5.6Z"/><path class="cls-26" d="M168,140.25l-.3-.4.85.6ZM219.25,159,210.3,170.8l-40.85-29.65q3.45,1.9,14.55,7.95l4.55,2.45L208,162.45a116.59,116.59,0,0,1,9.35-14.75c.43-.6.88-1.22,1.35-1.85V146Q218.75,148.3,219.25,159Z"/><path class="cls-29" d="M278.15,196.65l-5.95.55c.1-1,.22-2.28.35-3.75q.56-6.3.55-10.2,0-9.25-5-14.4-3-3-3.45-3.75a10.06,10.06,0,0,1-1.55-5.65q0-5.7,4.65-12.25a81.91,81.91,0,0,1,10.35-11.45q9-8.7,10.7-10.55a26,26,0,0,0,5.4-8.1l5,.65,5.85.8a87.57,87.57,0,0,0-8.3,5.4q-13.91,9.9-15.55,27.5t-2.4,32.5Q278.55,190.3,278.15,196.65Z"/></g></symbol><symbol id="PUERTA_D_DER" data-name="PUERTA D DER" viewBox="0 0 15.8 30.75"><g id="Capa_1-4" data-name="Capa 1"><polygon class="cls-15" points="0.1 21.3 15.4 21.3 15.45 30.5 0 30.75 0.1 21.3"/><polygon class="cls-16" points="0.1 21.3 0.9 1.05 15.8 0 15.4 21.3 0.1 21.3"/></g></symbol><symbol id="PUERTA_D_IZ" data-name="PUERTA D IZ" viewBox="0 0 14.6 29.4"><g id="Capa_1-7" data-name="Capa 1"><polygon class="cls-16" points="13.5 20 0.3 20 0.9 0.95 14.6 0 13.5 20"/><path class="cls-15" d="M13.5,20,13,29.4A56.59,56.59,0,0,1,0,27.6L.3,20Z"/></g></symbol><symbol id="TAPA_PUERTA_DEVELOPERS" data-name="TAPA PUERTA DEVELOPERS" viewBox="0 0 63.19 35"><g id="Capa_1-8" data-name="Capa 1"><path class="cls-15" d="M61.8,31.8q-13.8,2.06-23,2.95h-.3a10,10,0,0,0-2.7.25l1.5-28.1L16.6,8.5l-1,25.9-.5,0q-.56-.1-1.05-.15c-2.27-.43-4.5-1-6.7-1.6Q2.9,31.06,0,30.15c.1-.73.22-1.53.35-2.4Q.7,25,1,21.6q.41-6.41.4-15V4.2c3.67.1,6.43-.42,8.3-1.55s3.82-1,5.85.5c2.27,1.43,3.88,1.42,4.85,0a101.17,101.17,0,0,1,14-.55,34.57,34.57,0,0,0,10.75-1.4A23.78,23.78,0,0,0,60,0q.86,2.44,1.5,5a55.69,55.69,0,0,1,1.65,15.7A63.32,63.32,0,0,1,61.8,31.8Z"/></g></symbol><symbol id="MARCO_PUERTA_DEVELOPERS" data-name="MARCO PUERTA DEVELOPERS" viewBox="0 0 27.5 30.55"><g id="Capa_1-9" data-name="Capa 1"><path class="cls-13" d="M1.9,30,0,29.63,1.35,2.38h0L3,2.23H3l20.6-2h0L26,0l.05,0L25,30.27c-.53.08-1,.14-1.37.18a5.49,5.49,0,0,1-1.48.07H22L23.42,3.8l.08-1.38L2.85,4Z"/><path class="cls-8" d="M23.42,3.8,4.35,5.27l-.95,25-1.5-.16V30l1-26L23.5,2.42ZM26.05,0,27.5,1.52,26.45,30.17l-1.5.28v-.18Z"/></g></symbol><symbol id="TAPA_PUERTA_BETATESTRS" data-name="TAPA PUERTA BETATESTRS" viewBox="0 0 63.58 38.52"><g id="Capa_1-10" data-name="Capa 1"><path class="cls-15" d="M16,37a107.85,107.85,0,0,1-.52-29.25c.15-1.26.32-2.53.52-3.8q.12-.77.27-1.5l44.35-.09A109.11,109.11,0,0,0,61.8,22.05q2,8.37,1.75,11.72H48.92L47.75,8.12,23.83,6.42H23.7l-.87,1.35q.55,4.08.75,28.53C19.52,36.73,17,37,16,37Z"/><path class="cls-17" d="M16.27,2.47Q16.12,3.21,16,4c-.2,1.27-.37,2.54-.52,3.8A107.85,107.85,0,0,0,16,37L0,38.52q.41-6.35.7-12.7.35-6.6.85-13.7A8.55,8.55,0,0,0,5,9.52,55.34,55.34,0,0,1,15,0a7.61,7.61,0,0,0,.25.72,5.26,5.26,0,0,0,1.1,1.63Z"/></g></symbol><symbol id="OK_2" data-name="OK 2" viewBox="0 0 32 32"><g id="Capa_1-12" data-name="Capa 1"><path class="cls-13" d="M32,16A16,16,0,0,1,16,32,15.78,15.78,0,0,1,4.7,27.3a15.93,15.93,0,0,1,0-22.6,15.93,15.93,0,0,1,22.6,0A15.78,15.78,0,0,1,32,16ZM25.05,5.17a2.63,2.63,0,0,0-2-.32,2.54,2.54,0,0,0-1.64,1.2l-6.93,11.4-3.22-6.8A2.66,2.66,0,0,0,9.7,9.27a2.61,2.61,0,0,0-2,.13,2.55,2.55,0,0,0-1.38,1.5,2.61,2.61,0,0,0,.11,2l5.35,11.3a2.6,2.6,0,0,0,1.37,1.3,2.52,2.52,0,0,0,1.85.1,2.56,2.56,0,0,0,1.47-1.15l9.5-15.65a2.67,2.67,0,0,0-.87-3.68Z"/></g></symbol><symbol id="X_2" data-name="X 2" viewBox="0 0 32 32"><g id="Capa_1-13" data-name="Capa 1"><path class="cls-13" d="M32,16A16,16,0,0,1,16,32,15.78,15.78,0,0,1,4.7,27.3a15.93,15.93,0,0,1,0-22.6,15.93,15.93,0,0,1,22.6,0A15.78,15.78,0,0,1,32,16ZM23.6,6a2.56,2.56,0,0,0-1.9.77l-5.58,5.58L10.55,6.75A2.56,2.56,0,0,0,8.65,6,2.63,2.63,0,0,0,6,8.65a2.56,2.56,0,0,0,.77,1.9l5.58,5.57L6.75,21.7a2.67,2.67,0,0,0,1.9,4.57,2.56,2.56,0,0,0,1.9-.77L16.15,20,21.7,25.5a2.69,2.69,0,0,0,3.8-3.8L20,16.15l5.55-5.6a2.56,2.56,0,0,0,.77-1.9A2.63,2.63,0,0,0,23.6,6Z"/></g></symbol><symbol id="RUEDAS_ENGRANAJES" data-name="RUEDAS ENGRANAJES" viewBox="0 0 181.55 167.15"><g id="Capa_1-16" data-name="Capa 1"><path class="cls-13" d="M136,141a18.78,18.78,0,1,0,0-37.55,19,19,0,0,0-13.25,5.5A18.78,18.78,0,0,0,136,141ZM70.9,39.2a22.57,22.57,0,1,0,6.65,16A22.6,22.6,0,0,0,70.9,39.2ZM83.1,19.45,93.9,16.1a55.21,55.21,0,0,1,11,15.8L98.7,42.75a45.31,45.31,0,0,1,1.75,11.5l9.4,6.45A55.44,55.44,0,0,1,103.2,82l-13,2a45.86,45.86,0,0,1-3.4,3.7l.85,11.9a54.93,54.93,0,0,1-22.35,9.85L56,100.7c-.33,0-.68,0-1.05,0s-.67,0-1,0l-9.4,8.7a55.32,55.32,0,0,1-22.4-9.85l.9-11.9A45.86,45.86,0,0,1,19.6,84L6.65,82A54.43,54.43,0,0,1,0,60.7l9.4-6.45a47.13,47.13,0,0,1,1.7-11.5L4.85,31.9A56,56,0,0,1,16,16.1l10.8,3.35a45,45,0,0,1,15-7.85L46,.7A57.25,57.25,0,0,1,63.85.7l4.3,10.9A45,45,0,0,1,83.1,19.45Zm90.65,102,7.8,5.35A46,46,0,0,1,176,144.4l-10.75,1.65a35,35,0,0,1-2.8,3l.75,9.9a45.51,45.51,0,0,1-18.6,8.15l-7.8-7.2c-.27,0-.55,0-.85.05s-.55,0-.85-.05l-7.8,7.2A45.48,45.48,0,0,1,108.75,159l.7-9.9c-1-1-1.9-2-2.8-3L95.9,144.4a45.4,45.4,0,0,1-5.5-17.6l7.8-5.35a38,38,0,0,1,1.4-9.6l-5.15-9a46.54,46.54,0,0,1,9.15-13.1l9,2.75A37.33,37.33,0,0,1,125,86.05l3.55-9a46.24,46.24,0,0,1,14.85,0l3.55,9a37.92,37.92,0,0,1,12.4,6.45l9-2.75a47.33,47.33,0,0,1,9.2,13.1l-5.2,9A39.41,39.41,0,0,1,173.75,121.45Z"/></g></symbol><symbol id="CARTEL_EDIFICIO" data-name="CARTEL EDIFICIO" viewBox="0 0 144.39 51.99"><g id="Capa_2-4" data-name="Capa 2"><path class="cls-8" d="M132.43,6.79Q144.69,6,144.38,19l-.45,18.65q-.45,12.35-12.3,12.6L17.33,52q-9.6.1-10.1-10.7l-.75-16.4q-.55-11.35,9.25-11.8Z"/></g><g id="Capa_1-17" data-name="Capa 1"><path class="cls-2" d="M139.43,13.74,139,32.39q-.45,12.35-12.3,12.6L12.38,46.74q-9.6.1-10.1-10.7l-.75-16.4Q1,8.29,10.78,7.84l116.7-6.3Q139.74.79,139.43,13.74Z"/><path class="cls-9" d="M139.43,13.74q.3-12.94-12-12.2L10.78,7.84Q1,8.29,1.53,19.64L2.28,36q.5,10.8,10.1,10.7L126.68,45q11.85-.26,12.3-12.6Z"/></g></symbol><symbol id="TXT_BETATESTERS" data-name="TXT BETATESTERS" viewBox="0 0 30.01 5.57"><g id="Capa_1-19" data-name="Capa 1"><text class="cls-18" transform="translate(0 4.29)">BETA TESTERS</text></g></symbol><symbol id="TXT_DEVELOPERS" data-name="TXT DEVELOPERS" viewBox="0 0 27.8 5.57"><g id="Capa_1-22" data-name="Capa 1"><text class="cls-18" transform="translate(0 4.29)">DEVELOPERS</text></g></symbol><symbol id="OJO_I_DESARROLLADOR" data-name="OJO I DESARROLLADOR" viewBox="0 0 3.65 4.55"><g id="Capa_1-23" data-name="Capa 1"><path class="cls-14" d="M.55,3.9A2.51,2.51,0,0,1,0,2.3,2.59,2.59,0,0,1,.55.65,1.57,1.57,0,0,1,1.85,0,1.52,1.52,0,0,1,3.1.65,2.59,2.59,0,0,1,3.65,2.3,2.51,2.51,0,0,1,3.1,3.9a1.52,1.52,0,0,1-1.25.65A1.57,1.57,0,0,1,.55,3.9Z"/></g></symbol><symbol id="cuello_bt_2" data-name="cuello bt 2" viewBox="0 0 18.75 26.25"><g id="Capa_1-24" data-name="Capa 1"><path class="cls-25" d="M2.7,12.55c.17-.83.33-1.72.5-2.65Q4.65,2.55,4.4,1.25c.37,0,.55-.2.55-.6A104.42,104.42,0,0,0,18.75,0Q18.2,3,17.5,16.05Z"/><path class="cls-5" d="M17.5,16.05q-.11,1.1-.15,2.25-.41,8-3.6,8-.5,0-5.85-.25T0,25.7V22a58.73,58.73,0,0,0,2.7-9.4Z"/></g></symbol><symbol id="brazo_bt2" data-name="brazo bt2" viewBox="0 0 32.2 39.45"><g id="Capa_1-25" data-name="Capa 1"><path class="cls-19" d="M29,26.3,17,32A47.65,47.65,0,0,0,.1,11.4Q-1,1.46,9.5,0A90.37,90.37,0,0,1,29,26.3Z"/><path class="cls-20" d="M32.2,33.65l-12.75,5.8A52.11,52.11,0,0,0,17,32L29,26.3q1,2.1,1.95,4.3C31.39,31.6,31.8,32.62,32.2,33.65Z"/></g></symbol><symbol id="cabeza_betatester_3" data-name="cabeza betatester 3" viewBox="0 0 99.68 112"><g id="Capa_1-26" data-name="Capa 1"><path class="cls-21" d="M83,40.1l5.6-3.85L88.08,35a31.9,31.9,0,0,1-20,.5,9.69,9.69,0,0,1-3.3-1.8q-7.8-6.6-.25-14.45a15.24,15.24,0,0,0,1.2-1.35,9.08,9.08,0,0,0,.65-.85L45.23,27.6l1.15-6.45-31,11,.95-7.65L14.63,23A32.26,32.26,0,0,1,17,20.4a11.41,11.41,0,0,1,1.3-1.2,29.83,29.83,0,0,1,9.5-5.95l.5.55a.19.19,0,0,0,.1-.05,36.82,36.82,0,0,1-1.25,3.55c-.17.37-.34.72-.5,1.05a103.3,103.3,0,0,1,11.45-5.5Q48.63,7.25,48.63,0q.65,1.91,1.7,5.7,1.89,6.75,1.7,7.55v.4q1-4.2,6.35-7.1,6.9-3.85,19-3.85A38.63,38.63,0,0,1,87,4.05a26.64,26.64,0,0,1,7.35,2.8V7.2q-4.86,0-12.2,3.9Q72.82,16,72.83,22.7a4.72,4.72,0,0,0,1.9,3.8A6.68,6.68,0,0,0,79.08,28q4.85,0,10.6-4.05,5-3.56,5.45-5.4c.26,0,.4-.12.4-.35,0,.07.06.45.2,1.15a9.73,9.73,0,0,1,.2,1.65q0,6.45-4.7,12.85Q86.93,39.75,83,40.1Zm-.8,27.35-2.5-13,4.7,1.15-9.3-14,7.8-1.45q1.29.15,7.35,1.5,6.3,1.45,9.4,2.25v.4q-1,.45-7.2,2.35c-4.14,1.27-6.4,2-6.8,2.15q.09,1.05,3.6,3.25,3.5,3.26,3.6,9.65v5.65a21.34,21.34,0,0,1-3.9-3.2c-1.44-1.33-2.4-2.28-2.9-2.85A35.63,35.63,0,0,0,82.23,67.45Z"/><path class="cls-22" d="M14.63,23l1.7,1.55-.95,7.65,31-11L45.23,27.6,66.43,17a9.08,9.08,0,0,1-.65.85,15.24,15.24,0,0,1-1.2,1.35Q57,27,64.83,33.65a9.69,9.69,0,0,0,3.3,1.8,31.9,31.9,0,0,0,20-.5l.55,1.3L83,40.1h-.2l.1,0-7.8,1.45,9.3,14-4.7-1.15,2.5,13-9.5,18-5.5,18.4,0,0a.21.21,0,0,0-.15,0q-4.11,1.6-8.8,3.1l11.6-26.9-5-7Q68.83,57.45,75,56.1L60,43.5,66.43,56c.1.23.21.48.35.75L42.93,40.55q-6.26,3.2-3.75,8.25-6.55,0-7.2-8.7V36.9a22.12,22.12,0,0,0-16.6,7.15,24,24,0,0,0-6.9,17.3l-.65.5a11.9,11.9,0,0,1-1.2-2.3Q-.78,39.11,14.63,23Z"/><path class="cls-5" d="M67.18,104l0,0,5.5-18.4h.1c0-.07.2-.38.5-1a5.48,5.48,0,0,1,3.45-1.3,7.58,7.58,0,0,1,5.9,3,11,11,0,0,1,2.65,7.35,8.85,8.85,0,0,1-5.3,8.55,13.75,13.75,0,0,1-6.1,1.5c-2.3,0-3.6,0-3.9-.05a11.14,11.14,0,0,0-2.8.35Zm-9,3.15,0,.05a2.21,2.21,0,0,0-.55.15q-6.41,1.55-9.85,2.3a105.55,105.55,0,0,1-23.2,2.4q-11.8,0-20.2-3.45Q3,108,1.83,107.38q-3.66-4.74,0-12.83,1-4.8,5.8-28.8c.3-1.53.58-3,.85-4.4a24,24,0,0,1,6.9-17.3A22.12,22.12,0,0,1,32,36.9v3.2q.64,8.74,7.2,8.7-2.51-5.05,3.75-8.25l23.85,16.2c-.14-.27-.25-.52-.35-.75L60,43.5,75,56.1q-6.15,1.35-10.1,17.1l5,7Z"/></g><g id="Capa_3" data-name="Capa 3"><path class="cls-3" d="M83.83,91.4l-.9-.55a4.78,4.78,0,0,0-2.5-.55A11.32,11.32,0,0,0,74.58,92c-.94.57-1.85,1.18-2.75,1.85A24.89,24.89,0,0,1,76,90.1q3.34-2.14,8.6,0A6.35,6.35,0,0,0,83.83,91.4Z"/></g><g id="Capa_2-7" data-name="Capa 2"><path class="cls-3" d="M17.48,55.5a34.37,34.37,0,0,1,5,3.6q4.24,3.34,4.25,3.95L21.08,70q-6.21,7.65-8.45,11.1.84.26,11.85.1v2.1q-4.2.3-4.95.3-6.81,0-8.25-.75c-.3-.13-.42-.33-.35-.6a1.38,1.38,0,0,0,.2-.45q0-.75,6.1-8.6Q23,65.7,25.58,62.9,19.52,58.21,17.48,55.5Z"/></g></symbol><symbol id="BOCA_DIENTES" data-name="BOCA DIENTES" viewBox="0 0 49.6 30.57"><g id="Capa_1-27" data-name="Capa 1"><path class="cls-2" d="M1.15,12.1l41.4,8.2,1.35,2.3a25.39,25.39,0,0,1-4.6,2.15,29.82,29.82,0,0,1-9.75,2Q14.45,27.31,6.8,20A25.44,25.44,0,0,1,1.15,12.1Z"/><path class="cls-3" d="M1.15,12.1A25.44,25.44,0,0,0,6.8,20q7.65,7.35,22.75,6.8a29.82,29.82,0,0,0,9.75-2,25.39,25.39,0,0,0,4.6-2.15,1.82,1.82,0,0,1,.25-.2c-.5-.67-1-1.37-1.6-2.1q-3.15-4-8-9.4Q31.15,7.19,24.65,0q5.3,2.4,13.4,12,7.5,9,7.6,9h.05a7,7,0,0,1,2.15-.4c.67,0,1.25.92,1.75,2.65a27.48,27.48,0,0,1-8.3,4.65,36.45,36.45,0,0,1-12.75,2.75Q16.06,31,7.05,21.6A35.94,35.94,0,0,1,.25,12a3.89,3.89,0,0,1-.25-.5l.6-.55C.77,11.3,1,11.7,1.15,12.1Z"/></g></symbol><symbol id="ceja_bt2" data-name="ceja bt2" viewBox="0 0 12.7 3.75"><g id="Capa_1-30" data-name="Capa 1"><path class="cls-23" d="M12.7,3.58.45,3.75C.39,3.06.26,1.94.05.4,0,.27,0,.13,0,0L2,.2,12.7.35Z"/></g></symbol><symbol id="ceja_bt2_2" data-name="ceja bt2 2" viewBox="0 0 14.55 6.15"><g id="Capa_1-31" data-name="Capa 1"><path class="cls-23" d="M14.55,2.85v3.3c-3-.43-5.23-.82-6.8-1.15L0,3.45V0Q6.56.75,8.5,1.15,9.4,1.35,14.55,2.85Z"/></g></symbol><symbol id="cuello_desarrollador" data-name="cuello desarrollador" viewBox="0 0 46.3 77.55"><g id="Capa_1-32" data-name="Capa 1"><polygon class="cls-25" points="42.9 41.1 8.25 31.45 14.35 0 46.3 3.4 42.9 41.1"/><polygon class="cls-5" points="42.9 41.1 39.55 77.55 0 74.05 8.25 31.45 42.9 41.1"/></g></symbol><symbol id="CABEZA_DESARROLLADOR" data-name="CABEZA DESARROLLADOR" viewBox="0 0 148.68 100.85"><g id="Capa_1-33" data-name="Capa 1"><path class="cls-4" d="M140.37,7.67q-23.25-2.29-42.1,3.8a7.29,7.29,0,0,1-4.75,0,58.76,58.76,0,0,0-34.8.65,66.94,66.94,0,0,1-21.45,3.2,20.94,20.94,0,0,0-12,3.55,7.19,7.19,0,0,1-5.25,1.25Q19.41-.63,41.62,0q17.79,1.2,35.8,1.25t34.8-.5Q129,.13,134,3C137.32,5,139.43,6.5,140.37,7.67Z"/><path class="cls-5" d="M137.14,31.82A167.16,167.16,0,0,0,144,80.72,10,10,0,0,1,143,89a13,13,0,0,1-5.18,4.9c-.38.2-.77.38-1.17.55l-2.68,1.37.18.28-1.18.22q-2.73.55-5.47,1a230.22,230.22,0,0,1-64.65,2.15q-9.6-1.15-19.15-3Q24.41,92.92,22.82,74q-8,6.7-16.85.7A12.79,12.79,0,0,1,.12,61.77Q2.27,42.72,20.52,47l.3,8.15q15.54-13.2,21-30.7c.33-1.13.61-2.28.85-3.45a68.76,68.76,0,0,0,39.65-5.1,39.19,39.19,0,0,1-8.4,9.7A30.43,30.43,0,0,1,67,30a42.26,42.26,0,0,0,34.1-5.8,46.43,46.43,0,0,0,3.9-2.95l-5.55,12.2a70.92,70.92,0,0,0,29.45-10.15Z"/><path class="cls-6" d="M20.52,47l-.45-26.9a7.19,7.19,0,0,0,5.25-1.25,20.94,20.94,0,0,1,12-3.55,66.94,66.94,0,0,0,21.45-3.2,58.76,58.76,0,0,1,34.8-.65,7.29,7.29,0,0,0,4.75,0q18.84-6.1,42.1-3.8,3.75,4.61-2,25.4l-1.23-1.25-8.22-8.5A70.92,70.92,0,0,1,99.47,33.47L105,21.27a46.43,46.43,0,0,1-3.9,2.95A42.26,42.26,0,0,1,67,30a30.43,30.43,0,0,0,6.9-4.4,39.19,39.19,0,0,0,8.4-9.7A68.76,68.76,0,0,1,42.67,21c-.24,1.17-.52,2.32-.85,3.45q-5.46,17.51-21,30.7Z"/><path class="cls-7" d="M138.37,33.07a8.62,8.62,0,0,0,.15,1q3.79,25.35,10,50.6a4.74,4.74,0,0,1-1.55,5,28,28,0,0,1-12.85,6.5l-.18-.28,2.68-1.37c.4-.17.79-.35,1.17-.55A13,13,0,0,0,143,89a10,10,0,0,0,1.05-8.3,167.16,167.16,0,0,1-6.88-48.9Z"/></g><g id="NARIZ"><path class="cls-3" d="M107.07,41.87l.55.05a26.08,26.08,0,0,0,8.5,17,32,32,0,0,0,15.8,8l.05.75a66.23,66.23,0,0,1-21.5,9.45c-.84.13-1.65.28-2.45.45l19.85-8.75a34.65,34.65,0,0,1-17.75-12.8,18,18,0,0,1-3.5-14Z"/></g><g id="OREJA"><path class="cls-3" d="M.22,64.52a.86.86,0,0,1,0-.45,8.28,8.28,0,0,1,1-2.45Zm6.2-4.85a9.78,9.78,0,0,0-5.13,1.75A8.17,8.17,0,0,1,6.07,58a11.81,11.81,0,0,1,9.5,1.1,5.11,5.11,0,0,1,2.9,5.1h-.6a34.1,34.1,0,0,0-6.35-4A8,8,0,0,0,6.42,59.67Z"/></g></symbol><symbol id="boca_d_sonrisaa" data-name="boca d sonrisaa" viewBox="0 0 28.85 13.12"><g id="Capa_1-34" data-name="Capa 1"><path class="cls-2" d="M4.23,6.32Q5.88,7,7.5,7.52A42.13,42.13,0,0,0,23.3,9.67l.1.21,2.33-.5c.3-.06.6-.13.89-.21,3-.39,2.25.21-2.35,1.83s-8,2.31-10.32,2.07a29.6,29.6,0,0,1-4.3-.62L7.12,12A31.19,31.19,0,0,0,4.23,6.32Z"/><path class="cls-3" d="M26.62,9.17c-.29.08-.59.15-.89.21a18.88,18.88,0,0,1-2.18.24.92.92,0,0,0-.25.05A42.13,42.13,0,0,1,7.5,7.52Q5.88,7,4.23,6.32c-.58-.21-1.16-.45-1.73-.7A12.25,12.25,0,0,1,0,4.07Q4.35,4,11.58.4L12.4,0a2.86,2.86,0,0,0,1.9,1.35Q6.65,3.83,4.9,4.47a3.93,3.93,0,0,1-1,.25c.27.08.55.14.83.2Q9.52,6.17,14.3,7.17A57.6,57.6,0,0,0,23,8.38a49.64,49.64,0,0,1,5.9.69A7.19,7.19,0,0,0,26.62,9.17Z"/></g></symbol><symbol id="ceja_dessarrollador_2" data-name="ceja dessarrollador 2" viewBox="0 0 43.75 9.7"><g id="Capa_1-36" data-name="Capa 1"><polygon class="cls-24" points="43.75 9.7 0 9.7 0 0 43.75 0.35 43.75 9.7"/></g></symbol><symbol id="GAFAS_con_cejas" data-name="GAFAS con cejas" viewBox="0 0 131.65 27.36"><g id="Capa_1-35" data-name="Capa 1"><path class="cls-2" d="M130.65,5.25l0,1.9a23.34,23.34,0,0,1-.3,3.15,18.86,18.86,0,0,1-6.65,11.05A10.78,10.78,0,0,1,122,22.8a22.24,22.24,0,0,1-14,4.05,22.41,22.41,0,0,1-15.4-6.55Q88.16,15.84,86.7,6l.35-.1ZM30.5,5.65l52.8.2a5.49,5.49,0,0,1,0,.7Q83,15,75,20.75T56.15,26.1q-10.95-.41-18.5-6.65Q30.56,13.5,30.5,5.65Z"/><path class="cls-10" d="M130.7,7.15a23.34,23.34,0,0,1-.3,3.15,18.86,18.86,0,0,1-6.65,11.05A10.78,10.78,0,0,1,122,22.8a22.24,22.24,0,0,1-14,4.05,22.41,22.41,0,0,1-15.4-6.55Q88.16,15.84,86.7,6m-3.4-.1a5.49,5.49,0,0,1,0,.7Q83,15,75,20.75T56.15,26.1q-10.95-.41-18.5-6.65-7.09-6-7.15-13.8m56.15.2h.4"/><path class="cls-11" d="M86.7,6l0-.1m44,1.3c0-.1,0-.73.05-1.9h-.1m-43.6.6-.4,0v0"/><path class="cls-12" d="M86.65,5.85H83.3m-52.8-.2L1,5.55m86.05.3,43.6-.6M30.5,5.65l52.8.2"/></g><g id="Capa_2-8" data-name="Capa 2"><use width="43.75" height="9.7" transform="translate(51.35) scale(0.5)" xlink:href="#ceja_dessarrollador_2"/></g><g id="Capa_3-2" data-name="Capa 3"><use width="43.75" height="9.7" transform="translate(97.85) scale(0.5)" xlink:href="#ceja_dessarrollador_2"/></g></symbol></defs><title>bg-bt</title><g id="Capa_2" data-name="Capa 2"><g id="Capa_1-2" data-name="Capa 1"><rect class="cls-30" width="1920" height="260"/><rect class="cls-31" y="260" width="1920" height="140"/><polygon class="cls-32" points="811 368 792 400 808 400 827 368 811 368"/><polygon class="cls-32" points="881 368 862 400 878 400 897 368 881 368"/><polygon class="cls-32" points="846 368 827 400 843 400 862 368 846 368"/><polygon class="cls-32" points="916 368 897 400 913 400 932 368 916 368"/><polygon class="cls-32" points="776 368 757 400 773 400 792 368 776 368"/><polygon class="cls-32" points="951 368 932 400 948 400 967 368 951 368"/><polygon class="cls-32" points="706 368 687 400 703 400 722 368 706 368"/><polygon class="cls-32" points="741 368 722 400 738 400 757 368 741 368"/><polygon class="cls-32" points="1196 368 1177 400 1193 400 1212 368 1196 368"/><polygon class="cls-32" points="671 368 652 400 668 400 687 368 671 368"/><polygon class="cls-32" points="1161 368 1142 400 1158 400 1177 368 1161 368"/><polygon class="cls-32" points="1126 368 1107 400 1123 400 1142 368 1126 368"/><polygon class="cls-32" points="1231 368 1212 400 1228 400 1247 368 1231 368"/><polygon class="cls-32" points="1091 368 1072 400 1088 400 1107 368 1091 368"/><polygon class="cls-32" points="986 368 967 400 983 400 1002 368 986 368"/><polygon class="cls-32" points="1021 368 1002 400 1018 400 1037 368 1021 368"/><polygon class="cls-32" points="1056 368 1037 400 1053 400 1072 368 1056 368"/><polygon class="cls-32" points="1266 368 1247 400 1263 400 1282 368 1266 368"/><polygon class="cls-32" points="286 368 267 400 283 400 302 368 286 368"/><polygon class="cls-32" points="356 368 337 400 353 400 372 368 356 368"/><polygon class="cls-32" points="216 368 197 400 213 400 232 368 216 368"/><polygon class="cls-32" points="321 368 302 400 318 400 337 368 321 368"/><polygon class="cls-32" points="251 368 232 400 248 400 267 368 251 368"/><polygon class="cls-32" points="181 368 162 400 178 400 197 368 181 368"/><polygon class="cls-32" points="636 368 617 400 633 400 652 368 636 368"/><polygon class="cls-32" points="146 368 127 400 143 400 162 368 146 368"/><polygon class="cls-32" points="111 368 92 400 108 400 127 368 111 368"/><polygon class="cls-32" points="76 368 57 400 73 400 92 368 76 368"/><polygon class="cls-32" points="496 368 477 400 493 400 512 368 496 368"/><polygon class="cls-32" points="566 368 547 400 563 400 582 368 566 368"/><polygon class="cls-32" points="601 368 582 400 598 400 617 368 601 368"/><polygon class="cls-32" points="1301 368 1282 400 1298 400 1317 368 1301 368"/><polygon class="cls-32" points="461 368 442 400 458 400 477 368 461 368"/><polygon class="cls-32" points="391 368 372 400 388 400 407 368 391 368"/><polygon class="cls-32" points="426 368 407 400 423 400 442 368 426 368"/><polygon class="cls-32" points="531 368 512 400 528 400 547 368 531 368"/><polygon class="cls-32" points="1756 368 1737 400 1753 400 1772 368 1756 368"/><polygon class="cls-32" points="1511 368 1492 400 1508 400 1527 368 1511 368"/><polygon class="cls-32" points="1686 368 1667 400 1683 400 1702 368 1686 368"/><polygon class="cls-32" points="1441 368 1422 400 1438 400 1457 368 1441 368"/><polygon class="cls-32" points="1896 368 1877 400 1893 400 1912 368 1896 368"/><polygon class="cls-32" points="1721 368 1702 400 1718 400 1737 368 1721 368"/><polygon class="cls-32" points="1476 368 1457 400 1473 400 1492 368 1476 368"/><polygon class="cls-32" points="1861 368 1842 400 1858 400 1877 368 1861 368"/><polygon class="cls-32" points="1581 368 1562 400 1578 400 1597 368 1581 368"/><polygon class="cls-32" points="1616 368 1597 400 1613 400 1632 368 1616 368"/><polygon class="cls-32" points="1546 368 1527 400 1543 400 1562 368 1546 368"/><polygon class="cls-32" points="1651 368 1632 400 1648 400 1667 368 1651 368"/><polygon class="cls-32" points="1406 368 1387 400 1403 400 1422 368 1406 368"/><polygon class="cls-32" points="0 368 0 400 3 400 22 368 0 368"/><polygon class="cls-32" points="1371 368 1352 400 1368 400 1387 368 1371 368"/><polygon class="cls-32" points="1336 368 1317 400 1333 400 1352 368 1336 368"/><polygon class="cls-32" points="1912 400 1920 400 1920 386.53 1912 400"/><polygon class="cls-32" points="1826 368 1807 400 1823 400 1842 368 1826 368"/><polygon class="cls-32" points="41 368 22 400 38 400 57 368 41 368"/><polygon class="cls-32" points="1791 368 1772 400 1788 400 1807 368 1791 368"/><polygon class="cls-33" points="512 368 493 400 512 400 531 368 512 368"/><polygon class="cls-33" points="547 368 528 400 547 400 566 368 547 368"/><polygon class="cls-33" points="582 368 563 400 582 400 601 368 582 368"/><polygon class="cls-33" points="22 368 3 400 22 400 41 368 22 368"/><polygon class="cls-33" points="57 368 38 400 57 400 76 368 57 368"/><polygon class="cls-33" points="92 368 73 400 92 400 111 368 92 368"/><polygon class="cls-33" points="127 368 108 400 127 400 146 368 127 368"/><polygon class="cls-33" points="162 368 143 400 162 400 181 368 162 368"/><polygon class="cls-33" points="197 368 178 400 197 400 216 368 197 368"/><polygon class="cls-33" points="232 368 213 400 232 400 251 368 232 368"/><polygon class="cls-33" points="267 368 248 400 267 400 286 368 267 368"/><polygon class="cls-33" points="302 368 283 400 302 400 321 368 302 368"/><polygon class="cls-33" points="337 368 318 400 337 400 356 368 337 368"/><polygon class="cls-33" points="372 368 353 400 372 400 391 368 372 368"/><polygon class="cls-33" points="407 368 388 400 407 400 426 368 407 368"/><polygon class="cls-33" points="442 368 423 400 442 400 461 368 442 368"/><polygon class="cls-33" points="477 368 458 400 477 400 496 368 477 368"/><polygon class="cls-33" points="1107 368 1088 400 1107 400 1126 368 1107 368"/><polygon class="cls-33" points="1142 368 1123 400 1142 400 1161 368 1142 368"/><polygon class="cls-33" points="1177 368 1158 400 1177 400 1196 368 1177 368"/><polygon class="cls-33" points="617 368 598 400 617 400 636 368 617 368"/><polygon class="cls-33" points="652 368 633 400 652 400 671 368 652 368"/><polygon class="cls-33" points="687 368 668 400 687 400 706 368 687 368"/><polygon class="cls-33" points="722 368 703 400 722 400 741 368 722 368"/><polygon class="cls-33" points="757 368 738 400 757 400 776 368 757 368"/><polygon class="cls-33" points="792 368 773 400 792 400 811 368 792 368"/><polygon class="cls-33" points="827 368 808 400 827 400 846 368 827 368"/><polygon class="cls-33" points="862 368 843 400 862 400 881 368 862 368"/><polygon class="cls-33" points="897 368 878 400 897 400 916 368 897 368"/><polygon class="cls-33" points="932 368 913 400 932 400 951 368 932 368"/><polygon class="cls-33" points="967 368 948 400 967 400 986 368 967 368"/><polygon class="cls-33" points="1002 368 983 400 1002 400 1021 368 1002 368"/><polygon class="cls-33" points="1037 368 1018 400 1037 400 1056 368 1037 368"/><polygon class="cls-33" points="1072 368 1053 400 1072 400 1091 368 1072 368"/><polygon class="cls-33" points="1702 368 1683 400 1702 400 1721 368 1702 368"/><polygon class="cls-33" points="1737 368 1718 400 1737 400 1756 368 1737 368"/><polygon class="cls-33" points="1772 368 1753 400 1772 400 1791 368 1772 368"/><polygon class="cls-33" points="1212 368 1193 400 1212 400 1231 368 1212 368"/><polygon class="cls-33" points="1247 368 1228 400 1247 400 1266 368 1247 368"/><polygon class="cls-33" points="1282 368 1263 400 1282 400 1301 368 1282 368"/><polygon class="cls-33" points="1317 368 1298 400 1317 400 1336 368 1317 368"/><polygon class="cls-33" points="1352 368 1333 400 1352 400 1371 368 1352 368"/><polygon class="cls-33" points="1387 368 1368 400 1387 400 1406 368 1387 368"/><polygon class="cls-33" points="1422 368 1403 400 1422 400 1441 368 1422 368"/><polygon class="cls-33" points="1457 368 1438 400 1457 400 1476 368 1457 368"/><polygon class="cls-33" points="1492 368 1473 400 1492 400 1511 368 1492 368"/><polygon class="cls-33" points="1527 368 1508 400 1527 400 1546 368 1527 368"/><polygon class="cls-33" points="1562 368 1543 400 1562 400 1581 368 1562 368"/><polygon class="cls-33" points="1597 368 1578 400 1597 400 1616 368 1597 368"/><polygon class="cls-33" points="1632 368 1613 400 1632 400 1651 368 1632 368"/><polygon class="cls-33" points="1667 368 1648 400 1667 400 1686 368 1667 368"/><polygon class="cls-33" points="1807 368 1788 400 1807 400 1826 368 1807 368"/><polygon class="cls-33" points="1842 368 1823 400 1842 400 1861 368 1842 368"/><polygon class="cls-33" points="1877 368 1858 400 1877 400 1896 368 1877 368"/><polygon class="cls-33" points="1920 368 1912 368 1893 400 1912 400 1920 386.53 1920 368"/><path class="cls-34" d="M925.83,105.54a6.75,6.75,0,0,0,.22-1.74c0-5.64-6.76-10.28-15.43-10.84A11.81,11.81,0,0,0,888.76,89c-3.3-4.2-9.26-7-16.08-7a21.5,21.5,0,0,0-14,4.82,13.16,13.16,0,0,0-21.21,4.23,26.29,26.29,0,0,0-5.8-.64c-9.49,0-17.19,4.88-17.19,10.9a7.75,7.75,0,0,0,1.67,4.69,8.35,8.35,0,0,0-2.84,6c0,3.56,2.7,6.72,6.87,8.71a5.14,5.14,0,0,0-1.34,3.37c0,3.92,5,7.1,11.2,7.1h.64c1.61,2.67,5.69,4.56,10.47,4.56a16,16,0,0,0,6.27-1.21,51.92,51.92,0,0,0,5.88.92c2.33,4.27,8.72,7.34,16.25,7.34,7.24,0,13.43-2.84,16-6.86a52.82,52.82,0,0,0,5.77-.75,25.81,25.81,0,0,0,7,.93c9.5,0,17.19-4.87,17.19-10.89v0h.07c9.49,0,17.19-4.88,17.19-10.9C932.73,110.7,930,107.53,925.83,105.54Z"/><path class="cls-34" d="M1118.62,163c0-3.87-2.7-7.31-6.86-9.47a6,6,0,0,0,1.34-3.67c0-4.27-5-7.73-11.2-7.73l-.64,0c-1.61-2.91-5.69-5-10.46-5a15,15,0,0,0-6.27,1.32,49.72,49.72,0,0,0-5.88-1c-2.33-4.64-8.72-8-16.24-8-7.23,0-13.42,3.08-16,7.45a50.72,50.72,0,0,0-5.77.82,23.88,23.88,0,0,0-7-1c-9.5,0-17.19,5.31-17.19,11.86v0h-.06c-9.49,0-17.19,5.31-17.19,11.85,0,3.89,2.71,7.34,6.9,9.5a8,8,0,0,0-.22,1.9c0,6.55,7.69,11.85,17.18,11.85a23.59,23.59,0,0,0,7.88-1.32,48.16,48.16,0,0,0,19.88,4.12,51.64,51.64,0,0,0,10.1-1,50.89,50.89,0,0,0,11.92,1.4,49.41,49.41,0,0,0,16.94-2.91,22.6,22.6,0,0,0,10.4,2.41c9.49,0,17.18-5.3,17.18-11.85a8.88,8.88,0,0,0-1.67-5.1A9.46,9.46,0,0,0,1118.62,163Z"/><path class="cls-13" d="M1128.09,277.56c0,8.36-73.46,15.14-164.09,15.14s-164.09-6.78-164.09-15.14S873.37,262.43,964,262.43,1128.09,269.21,1128.09,277.56Z"/><path class="cls-26" d="M1031.55,280.75a8.14,8.14,0,0,0-.35-1.5,5.28,5.28,0,0,0-.3-.9,18.19,18.19,0,0,0-5.25-6.9,25.94,25.94,0,0,0-5-3.45c-1-.47-1.82-.83-2.55-1.1l-.1-.65h.1a.49.49,0,0,0-.1-.2l-.1-1.2,10.75.85a8,8,0,0,1,1.95.4c.13,0,.22.33.25,1.1s.18,1.4.25,1.8l1,11.6-.2,0Z"/><path class="cls-8" d="M1031.55,280.75l-.7.1a8.36,8.36,0,0,0-3.6-1.5,33.54,33.54,0,0,0-7.15-.65c-.43,0-.8.05-1.1.05l-.9-11.85c.73.27,1.58.63,2.55,1.1a25.94,25.94,0,0,1,5,3.45,18.19,18.19,0,0,1,5.25,6.9,5.28,5.28,0,0,1,.3.9A8.14,8.14,0,0,1,1031.55,280.75ZM862.15,285h.25v.05Z"/><path class="cls-17" d="M1030.85,280.85a39.34,39.34,0,0,1-6.4.6c-1.4,0-3.15-.08-5.25-.25l-.2-2.45c.3,0,.67,0,1.1-.05a33.54,33.54,0,0,1,7.15.65A8.36,8.36,0,0,1,1030.85,280.85Z"/><use width="367.7" height="201.85" transform="translate(853.18 174.55) scale(0.55)" xlink:href="#fondo_eficio_2"/><use width="15.8" height="30.75" transform="translate(868.67 268) scale(0.55)" xlink:href="#PUERTA_D_DER"/><use width="15.8" height="30.75" transform="matrix(-0.55, 0, 0.01, 0.55, 1026.23, 263.8)" xlink:href="#PUERTA_D_DER"/><use width="15.8" height="30.75" transform="matrix(-0.55, 0, 0.02, 0.52, 1034.58, 264.7)" xlink:href="#PUERTA_D_DER"/><use width="14.6" height="29.4" transform="matrix(0.55, -0.01, 0.01, 0.55, 860.95, 268.85)" xlink:href="#PUERTA_D_IZ"/><use width="63.19" height="35" transform="translate(853.8 266.1) scale(0.55)" xlink:href="#TAPA_PUERTA_DEVELOPERS"/><use width="27.5" height="30.55" transform="translate(861.4 268.54) scale(0.55)" xlink:href="#MARCO_PUERTA_DEVELOPERS"/><use width="63.58" height="38.52" transform="translate(1006.15 261.53) scale(0.55)" xlink:href="#TAPA_PUERTA_BETATESTRS"/><use width="27.5" height="30.55" transform="matrix(-0.55, 0.02, 0.01, 0.56, 1033.45, 264.09)" xlink:href="#MARCO_PUERTA_DEVELOPERS"/><use width="32" height="32" transform="translate(1026.2 247.8) scale(0.23)" xlink:href="#OK_2"/><use width="32" height="32" transform="translate(1019.25 251.7) scale(0.2)" xlink:href="#X_2"/><use width="32" height="32" transform="translate(938.8 212.15) scale(0.41)" xlink:href="#OK_2"/><use width="32" height="32" transform="translate(928.15 203.9) scale(0.4)" xlink:href="#X_2"/><use width="181.55" height="167.15" transform="translate(940.35 194) scale(0.16)" xlink:href="#RUEDAS_ENGRANAJES"/><use width="144.39" height="51.99" transform="translate(894.49 221.39) scale(0.65 0.44)" xlink:href="#CARTEL_EDIFICIO"/><use width="144.39" height="51.99" transform="matrix(-0.15, 0, 0, 0.15, 1037.13, 256.12)" xlink:href="#CARTEL_EDIFICIO"/><use width="30.01" height="5.57" transform="translate(1018.22 258.5) scale(0.55)" xlink:href="#TXT_BETATESTERS"/><path class="cls-35" d="M929.69,229.14h-1.34l-2.15,7h1.1l.46-1.51h2.55l.46,1.51h1.9l-2.13-6.3c-.19-.58-.3-.71-.85-.71m-1.63,4.47,1-3.2,1,3.2Z"/><path class="cls-35" d="M919.92,231.88l.34-.5a1.35,1.35,0,0,0-1.2-2.24H916v7h3c2.59,0,3.36-3,1-4.27m-1.77,3.33h-.5v-5.16h.9a.82.82,0,0,1,.81.79.83.83,0,0,1-.18.51l-.58.87a1.54,1.54,0,0,1-.45,3"/><path class="cls-35" d="M914,231.88l.34-.5a1.34,1.34,0,0,0-1.2-2.24h-3v7H913c2.59,0,3.37-3,1-4.27m-1.77,3.33h-.49v-5.16h.9a.82.82,0,0,1,.81.79.83.83,0,0,1-.18.51l-.59.87a1.54,1.54,0,0,1-.45,3"/><path class="cls-35" d="M925.92,229.14l-1.59,5.32L923,230.05c-.25-.79-.38-.91-.85-.91h-1.24l2.29,7h1.69l2.13-7Z"/><text class="cls-36" transform="translate(936 234.87)">Beta <tspan class="cls-37" x="18.84" y="0">Testers</tspan></text><rect class="cls-38" x="902.36" y="236.44" width="1.87" height="1.88"/><rect class="cls-39" x="902.36" y="234.57" width="1.87" height="1.88"/><rect class="cls-40" x="902.36" y="232.69" width="1.87" height="1.88"/><rect class="cls-41" x="902.36" y="230.82" width="1.87" height="1.88"/><rect class="cls-42" x="902.36" y="228.94" width="1.87" height="1.88"/><rect class="cls-43" x="902.36" y="227.07" width="1.87" height="1.88"/><g id="Capa_1-20" data-name="Capa 1"><path class="cls-44" d="M870.82,260.5a1.43,1.43,0,0,0,1-.42,1.41,1.41,0,0,0,0-2,1.42,1.42,0,1,0-1,2.43Zm-4.94-7.72a1.68,1.68,0,0,0-1.21-.51,1.7,1.7,0,0,0-1.22.51,1.72,1.72,0,0,0,1.22,2.93,1.71,1.71,0,0,0,1.21-2.93Zm.93-1.5.82-.26a4.19,4.19,0,0,1,.84,1.2l-.48.83a3.59,3.59,0,0,1,.14.87l.71.49a4.06,4.06,0,0,1-.51,1.61l-1,.15a3.45,3.45,0,0,1-.26.28l.07.91a4.13,4.13,0,0,1-1.7.74l-.71-.66h-.16l-.71.66a4.13,4.13,0,0,1-1.7-.74l.07-.91a3.45,3.45,0,0,1-.26-.28l-1-.15a4.06,4.06,0,0,1-.51-1.61l.71-.49a3.59,3.59,0,0,1,.13-.87l-.47-.83a4.19,4.19,0,0,1,.84-1.2l.82.26a3.46,3.46,0,0,1,1.14-.6l.32-.83a4.65,4.65,0,0,1,1.36,0l.32.83A3.46,3.46,0,0,1,866.81,251.28Zm6.88,7.74.59.4a3.4,3.4,0,0,1-.42,1.34l-.82.13a2.19,2.19,0,0,1-.21.23l.06.75a3.58,3.58,0,0,1-1.41.62l-.6-.55h-.13l-.59.55a3.48,3.48,0,0,1-1.4-.62l0-.75a2.19,2.19,0,0,1-.21-.23l-.82-.13a3.4,3.4,0,0,1-.42-1.34l.59-.4a2.93,2.93,0,0,1,.11-.73l-.39-.68a3.64,3.64,0,0,1,.69-1l.69.21a2.91,2.91,0,0,1,.94-.49l.27-.68a3.16,3.16,0,0,1,1.12,0l.27.68a3.06,3.06,0,0,1,1,.49l.67-.21a3.47,3.47,0,0,1,.7,1l-.39.68A3.47,3.47,0,0,1,873.69,259Z"/></g><use width="144.39" height="51.99" transform="matrix(0.15, 0, 0, 0.15, 858.12, 260.27)" xlink:href="#CARTEL_EDIFICIO"/><use width="27.8" height="5.57" transform="translate(861.13 262.65) scale(0.55)" xlink:href="#TXT_DEVELOPERS"/><g class="cls-45"><path class="cls-46" d="M753.12,318.66q17.19,6,42.28,0l-4.82-17.39a56.48,56.48,0,0,1-35.69,2.18l-21.59-10.8-1.39,12.86Q734.64,313.47,753.12,318.66Z"/><path class="cls-47" d="M798.91,331.19q-1.81-6.22-3.51-12.51-25.1,6-42.28,0-18.48-5.21-21.21-13.13.17,21.33-.43,42.58l74.6,8.69Q802.72,344,798.91,331.19Z"/><path class="cls-48" d="M731.48,348.11c-.24,8.31-.55,27.18-.93,35.54l52,10.62A156.72,156.72,0,0,0,814,388.88c-2.46-10.71-5-21.4-7.89-32.08Z"/><use width="3.65" height="4.55" transform="translate(745.18 197.64) rotate(8.96) scale(6.7)" xlink:href="#OJO_I_DESARROLLADOR"/><use width="18.75" height="26.25" transform="matrix(-1.87, -0.22, -0.22, 1.87, 786.35, 267.63)" xlink:href="#cuello_bt_2"/><use width="32.2" height="39.45" transform="matrix(-1.88, -0.06, -0.06, 1.88, 753.19, 307.15)" xlink:href="#brazo_bt2"/><use width="99.68" height="112" transform="matrix(-1.87, -0.26, -0.26, 1.87, 862.88, 81.06)" xlink:href="#cabeza_betatester_3"/><use width="49.6" height="30.57" transform="translate(782.82 232.17) rotate(-6.71) scale(0.74)" xlink:href="#BOCA_DIENTES"/><use width="3.65" height="4.55" transform="matrix(-1.87, -0.26, -0.31, 2.2, 769.62, 187.3)" xlink:href="#OJO_I_DESARROLLADOR"/><use width="3.65" height="4.55" transform="matrix(-1.87, -0.26, -0.31, 2.2, 812.78, 190.11)" xlink:href="#OJO_I_DESARROLLADOR"/><use width="12.7" height="3.75" transform="matrix(-1.87, -0.26, -0.26, 1.87, 831.62, 179.31)" xlink:href="#ceja_bt2"/><use width="14.55" height="6.15" transform="matrix(-1.87, -0.26, -0.26, 1.87, 784.28, 177.67)" xlink:href="#ceja_bt2_2"/></g><g class="cls-49"><use width="46.3" height="77.55" transform="matrix(-0.59, -0.07, -0.07, 0.59, 1193.43, 202.17)" xlink:href="#cuello_desarrollador"/><path class="cls-2" d="M1196.61,236l.05.1-3.53,1.35Zm-5.34,63.74,7-5.91q-2.67-5.85-16.64.52l-1.14,13.63L1165,319.8l4.38-23.43,6.34-1-2-41.15,6.15-17.77-13.92-.21v.26l6.53,17.88-7.2,23.47q-5.34-5-10.63-2.9c1.56-2.38,3-4.51,4.39-6.37v-3q-3,.17-13.92,18.45t-10.82,22.23c0,.28.25.66.76,1.14.25-.38.54-.83.86-1.34.41-.66.87-1.39,1.38-2.18q1.24-2.07,2.91-4.93v.73h.09l14.83-1.24,9.77-1.45-4.14,25.86-24.32,16.32a47.78,47.78,0,0,1-7.34,4.3,43,43,0,0,1-13.35,3.89q-7.43.4-8-7.78l.38-1.66a695.54,695.54,0,0,1,38.47-80.89q7.64-13.62,14.35-27.82h29.56l2.62,8.13q13.63,44.21,23.22,75t4.91,34.92q-29.65.36-45.58-9t-16.54-10.21l5-3.68Zm-55.2,43,19.12-12-6.44,26.06,24.69,5V342.23a5.09,5.09,0,0,1,.72.26q14.4,5.19,24.17,7.72t9,20.89l-3,.15-3.82.93a170,170,0,0,1-66.35-.93Z"/><path class="cls-17" d="M1196.61,236l-3.48,1.45,3.53-1.35q14.64,42.85,25.88,86.75,2.1,8.24,3.43,16.69l.15-.06c0,2.84-.07,5-.1,6.54s-.89,3.07-2.57,4.55a9.54,9.54,0,0,1-6.48,2.23l0-.15-.76-.05L1209,351l1.43,20.11h-3.14q.81-18.35-9-20.89t-24.17-7.72a26,26,0,0,0-3.91-2.28,127.7,127.7,0,0,1-14.64-9.84.23.23,0,0,0-.23,0,.47.47,0,0,0-.19.31l-19.12,12a44.45,44.45,0,0,1-23.74,8.7c-.48-.34-.94-.69-1.38-1q-5.54-4.05-3.39-10.68a5.27,5.27,0,0,1,.24-.62l0,.62q.52,8.19,8,7.78a43,43,0,0,0,13.35-3.89,47.78,47.78,0,0,0,7.34-4.3l24.32-16.32,4.14-25.86,3.82-.57.66-.11L1165,319.8l15.54-11.87,10.77-8.24-27.08,24.77-5,3.68q.61.87,16.54,10.21t45.58,9q4.66-4.2-4.91-34.92t-23.22-75l-2.62-8.13h4Z"/><path class="cls-5" d="M1145.22,290.41q7.15-1.91,11.78,2.44l.38-.26-.15-1.14a11.66,11.66,0,0,0-8.1-4.66,12.92,12.92,0,0,0-1.76,0q2-3.42,3.81-6.38a14.11,14.11,0,0,1,8.25,1.3l.28-1.19c-.35-.28-.68-.56-1-.83a8.41,8.41,0,0,0-6-1.82c.63-1,1.27-2,1.9-2.9q5.3-2.12,10.63,2.9c.77.87,1.35,3.22,1.77,7.05s.94,7.69,1.67,11.56l-3.82.57-9.77,1.45-1.57-.83a15.68,15.68,0,0,0-11.26-.47l-.52.21c-.29.1-.55.21-.81.31Q1142.84,294.51,1145.22,290.41Zm46,9.28-10.77,8.24,1.14-13.63q14-6.37,16.64-.52Z"/><path class="cls-8" d="M1168.68,296.48q-1.1-5.81-1.67-11.56c-.42-3.83-1-6.18-1.77-7.05l7.2-23.47-6.53-17.88v-.26l13.92.21-6.15,17.77,2,41.15-6.34,1Zm5.48,46a5.09,5.09,0,0,0-.72-.26v19.54l-24.69-5,6.44-26.06.42-.31a127.7,127.7,0,0,0,14.64,9.84A26,26,0,0,1,1174.16,342.49Z"/><path class="cls-3" d="M1140.93,297.72c.26-.1.52-.21.81-.31l.52-.21a15.68,15.68,0,0,1,11.26.47l1.57.83-14.83,1.24h-.09V299C1140.42,298.6,1140.68,298.17,1140.93,297.72Zm11.78-19.85a8.41,8.41,0,0,1,6,1.82c.32.27.65.55,1,.83l-.28,1.19a14.11,14.11,0,0,0-8.25-1.3C1151.69,279.55,1152.2,278.7,1152.71,277.87Zm-5.34,8.92a12.92,12.92,0,0,1,1.76,0,11.66,11.66,0,0,1,8.1,4.66l.15,1.14-.38.26q-4.63-4.35-11.78-2.44c.48-.82,1-1.66,1.43-2.48Q1147,287.36,1147.37,286.79Z"/><path class="cls-2" d="M1151.18,280.41q-1.86,3-3.81,6.38-.39.57-.72,1.14c-.48.82-1,1.66-1.43,2.48q-2.38,4.09-4.29,7.31c-.25.45-.51.88-.76,1.29q-1.67,2.87-2.91,4.93c-.51.79-1,1.52-1.38,2.18-.32.51-.61,1-.86,1.34-.51-.48-.76-.86-.76-1.14q0-4.1,10.82-22.23Q1156,265.8,1159,265.64v3c-1.37,1.86-2.83,4-4.39,6.37-.63.9-1.27,1.87-1.9,2.9C1152.2,278.7,1151.69,279.55,1151.18,280.41Z"/><use width="148.68" height="100.85" transform="matrix(-1.05, 0.02, 0.02, 1.05, 1265.26, 104.99)" xlink:href="#CABEZA_DESARROLLADOR"/><use width="28.85" height="13.12" transform="matrix(1.01, -0.23, 0.21, 0.9, 1137.79, 190.95)" xlink:href="#boca_d_sonrisaa"/><use width="131.65" height="27.36" transform="matrix(-1.05, 0.02, 0.02, 1.05, 1243.56, 143.76)" xlink:href="#GAFAS_con_cejas"/><use width="3.65" height="4.55" transform="matrix(-2.13, 0.09, 0.09, 2.13, 1138.26, 156.34)" xlink:href="#OJO_I_DESARROLLADOR"/><use width="3.65" height="4.55" transform="matrix(-2.13, 0.09, 0.09, 2.13, 1191.01, 155.87)" xlink:href="#OJO_I_DESARROLLADOR"/></g><rect class="cls-1" x="325.5" width="1280" height="400"/></g></g></svg>